<svg height="1083pt" preserveAspectRatio="xMidYMid meet" viewBox="0 0 1000 1083" width="1000pt" xmlns="http://www.w3.org/2000/svg"><path d="m5450 10761c-825-288-1521-661-2060-1104-126-104-405-387-500-507-120-151-230-322-310-484l-69-141-108-80c-682-506-1223-946-1223-994 0-25 69-6 246 68 170 70 214 82 214 59 0-21-216-226-405-384-460-385-716-669-932-1029-187-311-314-688-301-892l3-53 110 97c125 110 298 241 397 302 86 52 227 123 238 119 4-2-19-59-51-128-67-145-129-326-161-472-19-90-22-132-22-338l-1-235 49-140c138-400 341-782 629-1185 235-329 424-556 1006-1210 313-351 470-534 651-755l65-80 7 40c10 60 9 213-3 323-16 153-46 284-102 453l-52 157 85-78c97-89 240-247 331-365 360-468 547-983 594-1633 5-61 11-92 19-92 14 0 388 377 487 490 347 396 573 802 654 1170 9 41 19 140 22 219l6 144 36 40c63 70 241 217 350 289 366 242 750 328 1170 262 92-14 763-156 1106-234 217-49 265-54 345-40 110 20 366 123 613 246 672 336 1152 799 1377 1327 68 160 196 53-1045 873-594 392-1088 724-1099 736-39 48 2 185 77 257 20 18 86 59 148 91l112 57-164 184c-507 568-1044 1103-1499 1494l-35 30 73 165c250 560 440 1127 522 1555 25 130 50 338 50 413 0 46-2 53-17 48-318-93-483-148-687-229-146-57-402-181-516-249l-75-44 7 110c12 174 10 619-2 751-21 230-60 449-108 610-14 45-23 61-38 62-10 1-107-28-214-66zm-36-698c14-546-45-1003-190-1473-75-240-221-564-268-596-37-23-490-133-502-121-2 1-12 57-23 123-25 143-26 245-6 333 9 35 13 66 10 69s-49-39-103-94c-105-108-163-195-190-286-9-32-20-58-23-58-19 0-25 335-9 470 33 261 125 530 259 758 17 28 27 52 22 52-16 0-174-144-293-268-248-258-425-541-527-841l-39-114-12 74c-20 115-8 359 24 485 79 319 262 614 558 900 214 206 464 393 758 564 127 74 516 270 536 270 7 0 13-79 18-247zm242-3454c420-40 798-193 1132-457 185-146 405-400 550-635l67-108 715-431c393-238 767-464 830-503 132-81 121-56 100-245-21-191 0-407 54-566 30-90 67-162 127-251l49-72-98-84c-230-198-497-370-787-508-175-83-448-189-487-189-19 0-101 23-183 50-496 166-1036 275-1600 321-271 22-1019 9-1120-20l-30-8 25-7c14-3 99-22 190-41 183-39 390-100 390-115 0-6-5-10-10-10-6 0-66-27-133-61-144-71-309-179-426-279-60-50-87-67-91-58-4 7-26 78-50 158-51 178-119 348-216 542-122 244-222 404-545 873-127 184-217 332-289 475-28 55-54 100-59 100-24 0-82-177-100-309l-8-56-20 45c-75 168-164 481-188 665-47 360 9 653 172 904 54 82 236 259 328 320 185 121 460 231 730 290 178 39 532 81 686 81 65 0 78 14 27 28-183 51-396 117-393 123 3 3 26 10 52 14 230 35 418 43 609 24z" transform="matrix(.1 0 0 -.1 0 1083)"/></svg>